<svg width="992" height="744" viewBox="0 0 992 744" fill="none" xmlns="http://www.w3.org/2000/svg">
<g clip-path="url(#clip0_140_159)">
<rect width="992" height="744" fill="black"/>
<g clip-path="url(#clip1_140_159)">
<rect width="992" height="129.328" fill="black"/>
<path d="M899.95 30.8868C900.24 29.1366 901.758 27.8514 903.534 27.8514H911.907C913.683 27.8514 915.201 29.1366 915.492 30.8868L916.18 35.0234C916.383 36.2311 917.19 37.2386 918.262 37.8328C918.501 37.9619 918.737 38.1008 918.973 38.2429C920.022 38.8758 921.298 39.0728 922.444 38.6433L926.374 37.1708C927.179 36.8679 928.066 36.8607 928.876 37.1505C929.686 37.4403 930.367 38.0082 930.798 38.7531L934.983 46.009C935.413 46.754 935.564 47.6273 935.41 48.4734C935.257 49.3196 934.808 50.0837 934.143 50.63L930.905 53.3005C929.958 54.0787 929.49 55.28 929.516 56.5038C929.521 56.7783 929.521 57.0528 929.516 57.3273C929.49 58.5479 929.958 59.7491 930.905 60.5274L934.147 63.1979C935.516 64.3281 935.871 66.2817 934.986 67.8156L930.795 75.0715C930.365 75.8163 929.685 76.3844 928.875 76.6747C928.066 76.965 927.179 76.9588 926.374 76.6571L922.444 75.1846C921.298 74.7551 920.022 74.9521 918.97 75.585C918.736 75.7274 918.499 75.8652 918.259 75.9983C917.19 76.5892 916.383 77.5967 916.18 78.8044L915.492 82.941C915.201 84.6944 913.683 85.9764 911.907 85.9764H903.531C901.755 85.9764 900.24 84.6912 899.947 82.941L899.259 78.8044C899.059 77.5967 898.251 76.5892 897.179 75.9951C896.94 75.863 896.703 75.7263 896.469 75.585C895.419 74.9521 894.144 74.7551 892.994 75.1846L889.064 76.6571C888.259 76.9591 887.373 76.9658 886.564 76.6761C885.755 76.3864 885.074 75.819 884.644 75.0748L880.455 67.8188C880.026 67.0738 879.874 66.2006 880.028 65.3544C880.182 64.5083 880.631 63.7441 881.295 63.1979L884.537 60.5274C885.48 59.7524 885.948 58.5479 885.926 57.3273C885.921 57.0528 885.921 56.7783 885.926 56.5038C885.948 55.2767 885.48 54.0787 884.537 53.3005L881.295 50.63C880.631 50.0839 880.183 49.3203 880.029 48.4749C879.876 47.6295 880.027 46.7569 880.455 46.0123L884.644 38.7563C885.074 38.0108 885.754 37.4422 886.565 37.1519C887.375 36.8615 888.262 36.8682 889.068 37.1708L892.994 38.6433C894.144 39.0728 895.419 38.8758 896.469 38.2429C896.701 38.1008 896.94 37.9652 897.179 37.8296C898.251 37.2386 899.059 36.2311 899.259 35.0234L899.95 30.8868Z" stroke="white" stroke-width="5.8125" stroke-linecap="round" stroke-linejoin="round"/>
<path d="M917.407 56.914C917.407 59.4833 916.386 61.9474 914.569 63.7641C912.752 65.5809 910.288 66.6015 907.719 66.6015C905.15 66.6015 902.686 65.5809 900.869 63.7641C899.052 61.9474 898.032 59.4833 898.032 56.914C898.032 54.3448 899.052 51.8807 900.869 50.0639C902.686 48.2472 905.15 47.2265 907.719 47.2265C910.288 47.2265 912.752 48.2472 914.569 50.0639C916.386 51.8807 917.407 54.3448 917.407 56.914Z" stroke="white" stroke-width="5.8125" stroke-linecap="round" stroke-linejoin="round"/>
<path d="M37.8342 84.9141L57.3606 30.3083H65.5723V40.0337H62.7341L48.0515 84.9141H37.8342ZM47.7109 70.7991L50.322 63.2686H75.3354L77.9465 70.7991H47.7109ZM77.606 84.9141L62.9233 40.0337V30.3083H68.3347L87.8232 84.9141H77.606ZM92.7427 84.9141V44.8018H102.127V51.7268H102.354C102.96 49.3049 104.057 47.4128 105.647 46.0505C107.261 44.663 109.229 43.9692 111.55 43.9692C112.13 43.9692 112.685 44.0071 113.215 44.0828C113.745 44.1584 114.186 44.2467 114.54 44.3477V52.8621C114.161 52.7107 113.619 52.5846 112.912 52.4836C112.231 52.3827 111.487 52.3323 110.68 52.3323C108.914 52.3323 107.387 52.6981 106.101 53.4297C104.814 54.1361 103.83 55.183 103.149 56.5706C102.468 57.9581 102.127 59.6484 102.127 61.6414V84.9141H92.7427ZM135.92 85.7087C131.758 85.7087 128.655 84.8005 126.611 82.9841C124.593 81.1677 123.584 78.1908 123.584 74.0535V52.0674H117.907V44.8018H123.584V34.6223H133.158V44.8018H140.613V52.0674H133.158V73.2966C133.158 75.2392 133.587 76.5889 134.444 77.3457C135.327 78.0773 136.614 78.4431 138.304 78.4431C138.784 78.4431 139.2 78.4305 139.553 78.4053C139.931 78.3548 140.285 78.317 140.613 78.2917V85.3682C140.058 85.4438 139.376 85.5195 138.569 85.5952C137.787 85.6709 136.904 85.7087 135.92 85.7087ZM147.348 84.9141V30.3083H156.771V51.5376H156.96C158.02 49.1157 159.597 47.2489 161.69 45.937C163.81 44.6252 166.358 43.9692 169.334 43.9692C172.236 43.9692 174.746 44.6378 176.865 45.9749C178.984 47.2867 180.624 49.141 181.784 51.5376C182.945 53.909 183.525 56.7093 183.525 59.9385V84.9141H174.103V61.7927C174.103 58.7149 173.358 56.3057 171.87 54.5649C170.381 52.799 168.288 51.916 165.588 51.916C163.822 51.916 162.271 52.3449 160.934 53.2026C159.622 54.0352 158.6 55.1956 157.868 56.6841C157.137 58.1473 156.771 59.8502 156.771 61.7927V84.9141H147.348ZM191.131 84.9141V44.8018H200.516V51.7268H200.743C201.349 49.3049 202.446 47.4128 204.035 46.0505C205.65 44.663 207.618 43.9692 209.939 43.9692C210.519 43.9692 211.074 44.0071 211.604 44.0828C212.134 44.1584 212.575 44.2467 212.928 44.3477V52.8621C212.55 52.7107 212.007 52.5846 211.301 52.4836C210.62 52.3827 209.876 52.3323 209.068 52.3323C207.302 52.3323 205.776 52.6981 204.49 53.4297C203.203 54.1361 202.219 55.183 201.538 56.5706C200.857 57.9581 200.516 59.6484 200.516 61.6414V84.9141H191.131ZM234.006 85.7087C230.071 85.7087 226.652 84.8762 223.751 83.2112C220.85 81.5209 218.592 79.1243 216.977 76.0212C215.388 72.893 214.593 69.1719 214.593 64.8579V64.7822C214.593 60.4935 215.401 56.7976 217.015 53.6946C218.63 50.5663 220.888 48.1697 223.789 46.5046C226.69 44.8144 230.083 43.9692 233.968 43.9692C237.879 43.9692 241.284 44.8144 244.186 46.5046C247.112 48.1697 249.382 50.5537 250.997 53.6567C252.612 56.7598 253.419 60.4683 253.419 64.7822V64.8579C253.419 69.1971 252.612 72.9308 250.997 76.0591C249.408 79.1621 247.162 81.5461 244.261 83.2112C241.36 84.8762 237.942 85.7087 234.006 85.7087ZM234.044 78.1025C236.037 78.1025 237.765 77.5854 239.228 76.551C240.691 75.5167 241.814 74.0156 242.596 72.0479C243.403 70.0549 243.807 67.6582 243.807 64.8579V64.7822C243.807 62.0072 243.403 59.6357 242.596 57.668C241.789 55.7002 240.641 54.1991 239.153 53.1648C237.689 52.1305 235.961 51.6133 233.968 51.6133C232.026 51.6133 230.31 52.1305 228.822 53.1648C227.359 54.1991 226.211 55.7002 225.378 57.668C224.571 59.6357 224.167 62.0072 224.167 64.7822V64.8579C224.167 67.6582 224.571 70.0549 225.378 72.0479C226.211 74.0156 227.359 75.5167 228.822 76.551C230.31 77.5854 232.051 78.1025 234.044 78.1025ZM275.14 85.7087C271.633 85.7087 268.631 85.1916 266.134 84.1572C263.661 83.1229 261.719 81.6723 260.306 79.8054C258.919 77.9133 258.073 75.7311 257.771 73.2588L257.733 72.9182H267.004L267.08 73.2588C267.433 74.9995 268.266 76.3492 269.577 77.3079C270.914 78.2665 272.781 78.7458 275.178 78.7458C276.717 78.7458 278.029 78.5566 279.114 78.1782C280.198 77.7998 281.031 77.2448 281.611 76.5132C282.217 75.7816 282.519 74.9238 282.519 73.9399V73.9021C282.519 72.7164 282.116 71.7577 281.308 71.0261C280.501 70.2693 279.05 69.6512 276.957 69.1719L270.296 67.696C267.748 67.1158 265.617 66.3211 263.901 65.312C262.186 64.3029 260.899 63.0541 260.041 61.5657C259.184 60.052 258.755 58.2987 258.755 56.3057V56.2678C258.755 53.8207 259.423 51.6764 260.76 49.8347C262.097 47.9931 263.977 46.5551 266.399 45.5208C268.821 44.4864 271.633 43.9692 274.837 43.9692C278.167 43.9692 281.018 44.5243 283.39 45.6343C285.761 46.7443 287.59 48.2327 288.877 50.0996C290.189 51.9665 290.895 54.0604 290.996 56.3813L291.034 56.7976H282.254L282.217 56.4949C282.015 54.8803 281.283 53.5558 280.022 52.5215C278.76 51.4619 277.032 50.9321 274.837 50.9321C273.45 50.9321 272.239 51.134 271.205 51.5376C270.195 51.9412 269.413 52.5089 268.858 53.2405C268.329 53.9721 268.064 54.8298 268.064 55.8137V55.8516C268.064 56.6084 268.253 57.2896 268.631 57.895C269.01 58.5005 269.615 59.0303 270.448 59.4844C271.28 59.9132 272.39 60.2917 273.778 60.6196L280.438 62.0955C284.601 63.0289 287.565 64.366 289.331 66.1067C291.097 67.8222 291.98 70.1305 291.98 73.0317V73.0696C291.98 75.5924 291.261 77.8124 289.823 79.7297C288.385 81.6218 286.392 83.0977 283.844 84.1572C281.321 85.1916 278.42 85.7087 275.14 85.7087ZM315.707 85.7087C311.746 85.7087 308.315 84.8636 305.414 83.1733C302.512 81.4831 300.267 79.0738 298.678 75.9456C297.114 72.8173 296.332 69.1088 296.332 64.8201V64.7822C296.332 60.5187 297.126 56.8354 298.716 53.7324C300.305 50.6042 302.538 48.1949 305.414 46.5046C308.315 44.8144 311.708 43.9692 315.593 43.9692C319.125 43.9692 322.177 44.6504 324.751 46.0127C327.324 47.3498 329.342 49.1283 330.805 51.3484C332.269 53.5684 333.101 56.0155 333.303 58.6897V58.9546H324.448L324.372 58.6519C323.994 56.7093 323.073 55.0569 321.61 53.6946C320.172 52.307 318.204 51.6133 315.707 51.6133C313.739 51.6133 312.011 52.1557 310.522 53.2405C309.059 54.3 307.924 55.8137 307.116 57.7815C306.309 59.7493 305.906 62.1081 305.906 64.8579V64.8958C305.906 67.6708 306.309 70.0422 307.116 72.01C307.949 73.9778 309.097 75.4915 310.56 76.551C312.049 77.5854 313.777 78.1025 315.744 78.1025C318.141 78.1025 320.071 77.4592 321.534 76.1726C323.023 74.8608 323.981 73.1579 324.41 71.064L324.486 70.7234H333.379L333.341 70.9883C333.089 73.7633 332.206 76.2609 330.692 78.481C329.178 80.701 327.147 82.467 324.599 83.7788C322.051 85.0654 319.087 85.7087 315.707 85.7087ZM356.765 85.7087C352.829 85.7087 349.411 84.8762 346.51 83.2112C343.609 81.5209 341.351 79.1243 339.736 76.0212C338.147 72.893 337.352 69.1719 337.352 64.8579V64.7822C337.352 60.4935 338.159 56.7976 339.774 53.6946C341.389 50.5663 343.646 48.1697 346.548 46.5046C349.449 44.8144 352.842 43.9692 356.727 43.9692C360.637 43.9692 364.043 44.8144 366.944 46.5046C369.871 48.1697 372.141 50.5537 373.756 53.6567C375.37 56.7598 376.178 60.4683 376.178 64.7822V64.8579C376.178 69.1971 375.37 72.9308 373.756 76.0591C372.167 79.1621 369.921 81.5461 367.02 83.2112C364.119 84.8762 360.7 85.7087 356.765 85.7087ZM356.803 78.1025C358.796 78.1025 360.524 77.5854 361.987 76.551C363.45 75.5167 364.573 74.0156 365.355 72.0479C366.162 70.0549 366.566 67.6582 366.566 64.8579V64.7822C366.566 62.0072 366.162 59.6357 365.355 57.668C364.548 55.7002 363.4 54.1991 361.911 53.1648C360.448 52.1305 358.72 51.6133 356.727 51.6133C354.785 51.6133 353.069 52.1305 351.581 53.1648C350.117 54.1991 348.969 55.7002 348.137 57.668C347.33 59.6357 346.926 62.0072 346.926 64.7822V64.8579C346.926 67.6582 347.33 70.0549 348.137 72.0479C348.969 74.0156 350.117 75.5167 351.581 76.551C353.069 77.5854 354.81 78.1025 356.803 78.1025ZM382.232 98.1587V44.8018H391.617V51.7268H391.844C392.626 50.1122 393.61 48.7373 394.796 47.6021C396.007 46.4416 397.407 45.546 398.996 44.9153C400.611 44.2846 402.364 43.9692 404.256 43.9692C407.662 43.9692 410.601 44.8144 413.073 46.5046C415.571 48.1697 417.488 50.5663 418.825 53.6946C420.188 56.8228 420.869 60.5439 420.869 64.8579V64.8958C420.869 69.1845 420.188 72.893 418.825 76.0212C417.488 79.1243 415.584 81.5209 413.111 83.2112C410.664 84.8762 407.763 85.7087 404.408 85.7087C402.516 85.7087 400.75 85.406 399.11 84.8005C397.495 84.1951 396.07 83.3247 394.834 82.1895C393.598 81.0542 392.601 79.7045 391.844 78.1404H391.617V98.1587H382.232ZM401.494 77.7998C403.512 77.7998 405.253 77.27 406.716 76.2104C408.179 75.1509 409.302 73.6624 410.084 71.7451C410.891 69.8026 411.295 67.5194 411.295 64.8958V64.8579C411.295 62.1585 410.891 59.8502 410.084 57.9329C409.302 55.9903 408.167 54.5019 406.678 53.4675C405.215 52.4332 403.487 51.916 401.494 51.916C399.551 51.916 397.836 52.4458 396.347 53.5054C394.859 54.5649 393.686 56.066 392.828 58.0085C391.996 59.9259 391.579 62.209 391.579 64.8579V64.8958C391.579 67.5194 391.996 69.8026 392.828 71.7451C393.686 73.6624 394.859 75.1509 396.347 76.2104C397.836 77.27 399.551 77.7998 401.494 77.7998ZM430.897 98.2344C429.989 98.2344 429.093 98.1839 428.21 98.083C427.352 98.0073 426.633 97.919 426.053 97.8181V90.666C426.406 90.7165 426.848 90.7795 427.378 90.8552C427.907 90.9309 428.513 90.9688 429.194 90.9688C431.01 90.9688 432.448 90.6534 433.508 90.0227C434.568 89.4172 435.4 88.2694 436.006 86.5791L436.573 84.9519L422.156 44.8018H432.411L442.401 78.8594L440.963 76.8916H442.969L441.531 78.8594L451.521 44.8018H461.435L446.98 86.2764C445.971 89.2028 444.747 91.5364 443.309 93.2771C441.871 95.0431 440.13 96.3044 438.087 97.0613C436.069 97.8433 433.672 98.2344 430.897 98.2344Z" fill="white"/>
<path d="M527.906 34.1696L533.014 29.0595C534.078 27.9948 535.522 27.3967 537.028 27.3967C538.533 27.3967 539.977 27.9948 541.042 29.0595C542.107 30.1241 542.705 31.5681 542.705 33.0737C542.705 34.5794 542.107 36.0233 541.042 37.088L508.895 69.2353C507.294 70.8349 505.321 72.0106 503.152 72.6562L495.023 75.0781L497.445 66.9497C498.091 64.781 499.267 62.8073 500.866 61.2068L527.906 34.1696ZM527.906 34.1696L535.893 42.1557M531.352 62.9687V77.3486C531.352 79.1551 530.634 80.8877 529.357 82.1651C528.079 83.4425 526.347 84.1601 524.54 84.1601H492.753C490.946 84.1601 489.214 83.4425 487.936 82.1651C486.659 80.8877 485.941 79.1551 485.941 77.3486V45.5615C485.941 43.755 486.659 42.0224 487.936 40.745C489.214 39.4676 490.946 38.75 492.753 38.75H507.133" stroke="#557AE0" stroke-width="2.42188" stroke-linecap="round" stroke-linejoin="round"/>
</g>
<circle cx="167.107" cy="429" r="145.312" fill="#262626"/>
<g opacity="0.8">
<path d="M146.151 362.156H187.805C190.582 362.156 194.516 364.008 196.135 366.322L207.706 383.214C208.863 384.834 210.714 385.76 212.565 385.76H237.326C243.111 385.76 247.74 390.388 247.74 396.173V472.538C247.74 478.323 243.111 482.952 237.326 482.952H96.6296C90.8444 482.952 86.2162 478.323 86.2162 472.538V396.173C86.2162 390.388 90.8444 385.76 96.6296 385.76H121.39C123.242 385.76 125.093 384.834 126.25 383.214L137.82 366.322C139.44 364.008 143.143 362.156 146.151 362.156ZM206.086 399.182C206.086 402.19 208.4 404.504 211.408 404.504C214.185 404.504 216.731 402.19 216.731 399.182C216.731 396.173 214.417 393.859 211.408 393.859C208.4 393.859 206.086 396.173 206.086 399.182ZM130.415 433.43C130.415 453.794 146.845 470.224 166.978 470.224C187.11 470.224 203.541 453.794 203.541 433.43C203.541 413.066 187.11 396.636 166.978 396.636C146.845 396.636 130.415 413.066 130.415 433.43ZM138.283 433.43C138.283 417.463 151.011 404.504 166.978 404.504C182.945 404.504 195.673 417.463 195.673 433.43C195.673 449.397 182.945 462.356 166.978 462.356C151.011 462.356 138.283 449.397 138.283 433.43Z" fill="white"/>
<path d="M205.353 399.172C205.353 402.636 208.017 405.3 211.481 405.3C214.678 405.3 217.609 402.636 217.609 399.172C217.609 395.708 214.945 393.043 211.481 393.043C208.017 393.043 205.353 395.708 205.353 399.172Z" fill="#FF0000"/>
</g>
<g filter="url(#filter0_d_140_159)">
<path d="M471.781 574.315C404.901 574.315 350.685 520.099 350.685 453.219V404.781C350.685 337.901 404.901 283.685 471.781 283.685H520.219C587.099 283.685 641.315 337.901 641.315 404.781V453.219C641.315 520.099 587.099 574.315 520.219 574.315H471.781Z" fill="#262626"/>
</g>
<circle cx="496" cy="429" r="78.9545" stroke="white" stroke-width="5.8126"/>
<path d="M568.658 429C568.658 469.128 536.128 501.658 496 501.658C455.872 501.658 423.342 469.128 423.342 429C423.342 388.872 455.872 356.342 496 356.342C536.128 356.342 568.658 388.872 568.658 429Z" fill="#FA3532"/>
<path d="M970.206 429C970.206 509.254 905.147 574.312 824.893 574.312C744.639 574.312 679.581 509.254 679.581 429C679.581 348.746 744.639 283.688 824.893 283.688C905.147 283.688 970.206 348.746 970.206 429Z" fill="#262626"/>
<path opacity="0.9" d="M743.028 479.812L715.569 377.427H734.585L752.394 454.695H752.749L773.254 377.427H789.857L810.363 454.695H810.718L828.527 377.427H847.471L820.083 479.812H802.416L781.769 406.305H781.343L760.695 479.812H743.028ZM868.757 479.812V465.622H898.345C905.062 465.622 910.171 464.274 913.671 461.577C917.219 458.881 918.992 454.955 918.992 449.799V449.657C918.992 446.204 918.165 443.319 916.509 441.001C914.901 438.636 912.488 436.886 909.272 435.75C906.055 434.568 902.058 433.977 897.281 433.977H868.757V420.708H894.372C900.994 420.708 906.032 419.408 909.485 416.806C912.938 414.204 914.664 410.467 914.664 405.595V405.453C914.664 401.054 913.151 397.648 910.123 395.236C907.143 392.824 902.933 391.617 897.494 391.617H868.757V377.427H902.106C908.349 377.427 913.742 378.491 918.283 380.62C922.871 382.701 926.419 385.657 928.926 389.489C931.48 393.32 932.757 397.838 932.757 403.041V403.183C932.757 406.872 931.906 410.326 930.203 413.542C928.547 416.711 926.253 419.384 923.321 421.56C920.388 423.688 917.1 425.013 913.458 425.533V425.888C918.236 426.314 922.445 427.638 926.088 429.861C929.73 432.085 932.568 434.994 934.602 438.589C936.636 442.136 937.653 446.181 937.653 450.722V450.864C937.653 456.824 936.234 461.98 933.396 466.331C930.558 470.636 926.513 473.971 921.263 476.336C916.06 478.654 909.816 479.812 902.531 479.812H868.757ZM859.604 479.812V377.427H877.91V479.812H859.604Z" fill="white"/>
</g>
<defs>
<filter id="filter0_d_140_159" x="345.841" y="280.779" width="300.318" height="300.318" filterUnits="userSpaceOnUse" color-interpolation-filters="sRGB">
<feFlood flood-opacity="0" result="BackgroundImageFix"/>
<feColorMatrix in="SourceAlpha" type="matrix" values="0 0 0 0 0 0 0 0 0 0 0 0 0 0 0 0 0 0 127 0" result="hardAlpha"/>
<feOffset dy="1.93753"/>
<feGaussianBlur stdDeviation="2.42192"/>
<feComposite in2="hardAlpha" operator="out"/>
<feColorMatrix type="matrix" values="0 0 0 0 0 0 0 0 0 0 0 0 0 0 0 0 0 0 0.25 0"/>
<feBlend mode="normal" in2="BackgroundImageFix" result="effect1_dropShadow_140_159"/>
<feBlend mode="normal" in="SourceGraphic" in2="effect1_dropShadow_140_159" result="shape"/>
</filter>
<clipPath id="clip0_140_159">
<rect width="992" height="744" fill="white"/>
</clipPath>
<clipPath id="clip1_140_159">
<rect width="992" height="129.328" fill="white"/>
</clipPath>
</defs>
</svg>
