<svg width="78" height="78" viewBox="0 0 78 78" fill="none" xmlns="http://www.w3.org/2000/svg">
<path d="M31.1807 12.8049C31.4732 11.0434 33.0007 9.74989 34.7882 9.74989H43.2154C45.0029 9.74989 46.5304 11.0434 46.8229 12.8049L47.5152 16.9681C47.7199 18.1836 48.5324 19.1976 49.6114 19.7956C49.8519 19.9256 50.0892 20.0654 50.3264 20.2084C51.3827 20.8454 52.6664 21.0436 53.8202 20.6114L57.7754 19.1294C58.586 18.8246 59.4784 18.8173 60.2938 19.109C61.1091 19.4006 61.7946 19.9722 62.2279 20.7219L66.4399 28.0246C66.8724 28.7744 67.0248 29.6533 66.87 30.5049C66.7153 31.3565 66.2635 32.1256 65.5949 32.6754L62.3352 35.3631C61.3829 36.1464 60.9117 37.3554 60.9377 38.5871C60.9422 38.8634 60.9422 39.1397 60.9377 39.4159C60.9117 40.6444 61.3829 41.8534 62.3352 42.6366L65.5982 45.3244C66.9762 46.4619 67.3337 48.4281 66.4432 49.9719L62.2247 57.2746C61.7919 58.0242 61.1073 58.596 60.2926 58.8882C59.4779 59.1804 58.5859 59.1741 57.7754 58.8704L53.8202 57.3884C52.6664 56.9561 51.3827 57.1544 50.3232 57.7914C50.0876 57.9347 49.8492 58.0734 49.6082 58.2074C48.5324 58.8021 47.7199 59.8161 47.5152 61.0316L46.8229 65.1949C46.5304 66.9596 45.0029 68.2499 43.2154 68.2499H34.7849C32.9974 68.2499 31.4732 66.9564 31.1774 65.1949L30.4852 61.0316C30.2837 59.8161 29.4712 58.8021 28.3922 58.2041C28.1512 58.0712 27.9128 57.9336 27.6772 57.7914C26.6209 57.1544 25.3372 56.9561 24.1802 57.3884L20.2249 58.8704C19.4148 59.1743 18.5231 59.1811 17.7084 58.8895C16.8938 58.5979 16.2089 58.0269 15.7757 57.2779L11.5604 49.9751C11.128 49.2253 10.9756 48.3465 11.1303 47.4948C11.285 46.6432 11.7369 45.8741 12.4054 45.3244L15.6684 42.6366C16.6174 41.8566 17.0887 40.6444 17.0659 39.4159C17.0608 39.1397 17.0608 38.8634 17.0659 38.5871C17.0887 37.3521 16.6174 36.1464 15.6684 35.3631L12.4054 32.6754C11.7377 32.1258 11.2864 31.3573 11.1317 30.5064C10.9769 29.6555 11.1289 28.7774 11.5604 28.0279L15.7757 20.7251C16.2085 19.9748 16.8937 19.4026 17.7091 19.1103C18.5246 18.8181 19.4173 18.8248 20.2282 19.1294L24.1802 20.6114C25.3372 21.0436 26.6209 20.8454 27.6772 20.2084C27.9112 20.0654 28.1517 19.9289 28.3922 19.7924C29.4712 19.1976 30.2837 18.1836 30.4852 16.9681L31.1807 12.8049Z" stroke="white" stroke-width="5.8125" stroke-linecap="round" stroke-linejoin="round"/>
<path d="M48.75 39C48.75 41.5859 47.7228 44.0658 45.8943 45.8943C44.0658 47.7228 41.5859 48.75 39 48.75C36.4141 48.75 33.9342 47.7228 32.1057 45.8943C30.2772 44.0658 29.25 41.5859 29.25 39C29.25 36.4141 30.2772 33.9342 32.1057 32.1057C33.9342 30.2772 36.4141 29.25 39 29.25C41.5859 29.25 44.0658 30.2772 45.8943 32.1057C47.7228 33.9342 48.75 36.4141 48.75 39Z" stroke="white" stroke-width="5.8125" stroke-linecap="round" stroke-linejoin="round"/>
</svg>
