<svg width="73" height="73" viewBox="0 0 73 73" fill="none" xmlns="http://www.w3.org/2000/svg">
<path d="M51.2886 13.6479L56.4199 8.51361C57.4896 7.44392 58.9404 6.84298 60.4531 6.84298C61.9659 6.84298 63.4167 7.44392 64.4864 8.51361C65.5561 9.58329 66.157 11.0341 66.157 12.5469C66.157 14.0596 65.5561 15.5104 64.4864 16.5801L32.1869 48.8796C30.5789 50.4867 28.5958 51.6679 26.4169 52.3166L18.25 54.75L20.6833 46.5831C21.3321 44.4042 22.5133 42.4211 24.1204 40.8131L51.2886 13.6479ZM51.2886 13.6479L59.3125 21.6719M54.75 42.5833V57.0312C54.75 58.8463 54.029 60.587 52.7455 61.8705C51.4621 63.1539 49.7213 63.875 47.9062 63.875H15.9687C14.1537 63.875 12.4129 63.1539 11.1295 61.8705C9.84604 60.587 9.125 58.8463 9.125 57.0312V25.0937C9.125 23.2787 9.84604 21.5379 11.1295 20.2545C12.4129 18.971 14.1537 18.25 15.9687 18.25H30.4167" stroke="#557AE0" stroke-width="2.42188" stroke-linecap="round" stroke-linejoin="round"/>
</svg>
