<svg width="120" height="120" viewBox="0 0 120 120" fill="none" xmlns="http://www.w3.org/2000/svg">
<path d="M84.31 22.435L92.745 13.995C94.5034 12.2366 96.8883 11.2487 99.375 11.2487C101.862 11.2487 104.247 12.2366 106.005 13.995C107.763 15.7534 108.751 18.1382 108.751 20.625C108.751 23.1117 107.763 25.4966 106.005 27.255L52.91 80.35C50.2666 82.9918 47.0068 84.9336 43.425 86L30 90L34 76.575C35.0664 72.9931 37.0082 69.7333 39.65 67.09L84.31 22.435ZM84.31 22.435L97.5 35.625M90 70V93.75C90 96.7337 88.8147 99.5951 86.705 101.705C84.5952 103.815 81.7337 105 78.75 105H26.25C23.2663 105 20.4048 103.815 18.295 101.705C16.1853 99.5951 15 96.7337 15 93.75V41.25C15 38.2663 16.1853 35.4048 18.295 33.295C20.4048 31.1852 23.2663 30 26.25 30H50" stroke="#557AE0" stroke-width="4" stroke-linecap="round" stroke-linejoin="round"/>
</svg>
