<svg width="600" height="600" viewBox="0 0 600 600" fill="none" xmlns="http://www.w3.org/2000/svg">
<circle cx="300" cy="300" r="300" fill="#262626"/>
<g opacity="0.8">
<path d="M256.737 162H342.731C348.464 162 356.586 165.822 359.93 170.599L383.817 205.475C386.206 208.819 390.028 210.73 393.85 210.73H444.969C456.913 210.73 466.468 220.285 466.468 232.229V389.885C466.468 401.829 456.913 411.384 444.969 411.384H154.499C142.555 411.384 133 401.829 133 389.885V232.229C133 220.285 142.555 210.73 154.499 210.73H205.618C209.44 210.73 213.262 208.819 215.65 205.475L239.538 170.599C242.882 165.822 250.526 162 256.737 162ZM380.473 238.44C380.473 244.65 385.251 249.428 391.461 249.428C397.194 249.428 402.449 244.65 402.449 238.44C402.449 232.229 397.672 227.451 391.461 227.451C385.251 227.451 380.473 232.229 380.473 238.44ZM224.25 309.146C224.25 351.188 258.17 385.108 299.734 385.108C341.298 385.108 375.218 351.188 375.218 309.146C375.218 267.104 341.298 233.184 299.734 233.184C258.17 233.184 224.25 267.104 224.25 309.146ZM240.493 309.146C240.493 276.182 266.769 249.428 299.734 249.428C332.698 249.428 358.974 276.182 358.974 309.146C358.974 342.111 332.698 368.865 299.734 368.865C266.769 368.865 240.493 342.111 240.493 309.146Z" fill="white"/>
<path d="M378.959 238.419C378.959 245.571 384.46 251.071 391.611 251.071C398.212 251.071 404.263 245.571 404.263 238.419C404.263 231.268 398.762 225.767 391.611 225.767C384.46 225.767 378.959 231.268 378.959 238.419Z" fill="#FF0000"/>
</g>
</svg>
