<svg width="537" height="537" viewBox="0 0 537 537" fill="none" xmlns="http://www.w3.org/2000/svg">
<circle cx="268.5" cy="268.5" r="268.5" fill="#262626"/>
<g opacity="0.8">
<path d="M229.779 144.99H306.744C311.875 144.99 319.144 148.411 322.137 152.686L343.516 183.9C345.654 186.893 349.075 188.603 352.495 188.603H398.247C408.937 188.603 417.488 197.155 417.488 207.845V348.947C417.488 359.637 408.937 368.189 398.247 368.189H138.276C127.587 368.189 119.035 359.637 119.035 348.947V207.845C119.035 197.155 127.587 188.603 138.276 188.603H184.028C187.448 188.603 190.869 186.893 193.007 183.9L214.386 152.686C217.379 148.411 224.22 144.99 229.779 144.99ZM340.523 213.403C340.523 218.962 344.799 223.238 350.358 223.238C355.489 223.238 360.192 218.962 360.192 213.403C360.192 207.845 355.916 203.569 350.358 203.569C344.799 203.569 340.523 207.845 340.523 213.403ZM200.703 276.686C200.703 314.313 231.062 344.671 268.262 344.671C305.461 344.671 335.82 314.313 335.82 276.686C335.82 239.058 305.461 208.7 268.262 208.7C231.062 208.7 200.703 239.058 200.703 276.686ZM215.241 276.686C215.241 247.182 238.758 223.238 268.262 223.238C297.765 223.238 321.282 247.182 321.282 276.686C321.282 306.189 297.765 330.134 268.262 330.134C238.758 330.134 215.241 306.189 215.241 276.686Z" fill="white"/>
<path d="M339.168 213.385C339.168 219.785 344.092 224.709 350.492 224.709C356.4 224.709 361.816 219.785 361.816 213.385C361.816 206.985 356.892 202.061 350.492 202.061C344.092 202.061 339.168 206.985 339.168 213.385Z" fill="#FF0000"/>
</g>
</svg>
