<svg width="620" height="911" viewBox="0 0 620 911" fill="none" xmlns="http://www.w3.org/2000/svg">
<g filter="url(#filter0_d_244_215)">
<path d="M260 796C121.929 796 10 684.071 10 546L10 256C10 117.929 121.929 6 260 6H360C498.071 6 610 117.929 610 256V546C610 684.071 498.071 796 360 796H260Z" fill="#D4D4D4"/>
</g>
<path d="M212.238 94.1194C206.954 94.1194 202.417 92.7612 198.626 90.0449C194.835 87.3286 191.925 83.478 189.895 78.4931C187.865 73.4784 186.851 67.5532 186.851 60.7177V60.6281C186.851 53.7926 187.865 47.8823 189.895 42.8975C191.925 37.8827 194.835 34.0321 198.626 31.3457C202.417 28.6294 206.954 27.2712 212.238 27.2712C217.491 27.2712 222.013 28.6294 225.804 31.3457C229.625 34.0321 232.55 37.8827 234.58 42.8975C236.61 47.8823 237.625 53.7926 237.625 60.6281V60.7177C237.625 67.5532 236.61 73.4784 234.58 78.4931C232.55 83.478 229.625 87.3286 225.804 90.0449C222.013 92.7612 217.491 94.1194 212.238 94.1194ZM212.238 84.672C215.133 84.672 217.611 83.7168 219.67 81.8064C221.73 79.896 223.297 77.1499 224.372 73.5679C225.446 69.986 225.983 65.7026 225.983 60.7177V60.6281C225.983 55.6432 225.446 51.3747 224.372 47.8226C223.297 44.2407 221.73 41.5095 219.67 39.6289C217.611 37.7186 215.133 36.7634 212.238 36.7634C209.312 36.7634 206.82 37.7186 204.76 39.6289C202.731 41.5095 201.178 44.2407 200.104 47.8226C199.029 51.3747 198.492 55.6432 198.492 60.6281V60.7177C198.492 65.7026 199.029 69.986 200.104 73.5679C201.178 77.1499 202.731 79.896 204.76 81.8064C206.82 83.7168 209.312 84.672 212.238 84.672ZM270.713 94.1194C265.43 94.1194 260.893 92.7612 257.102 90.0449C253.311 87.3286 250.4 83.478 248.371 78.4931C246.341 73.4784 245.326 67.5532 245.326 60.7177V60.6281C245.326 53.7926 246.341 47.8823 248.371 42.8975C250.4 37.8827 253.311 34.0321 257.102 31.3457C260.893 28.6294 265.43 27.2712 270.713 27.2712C275.967 27.2712 280.489 28.6294 284.28 31.3457C288.1 34.0321 291.026 37.8827 293.055 42.8975C295.085 47.8823 296.1 53.7926 296.1 60.6281V60.7177C296.1 67.5532 295.085 73.4784 293.055 78.4931C291.026 83.478 288.1 87.3286 284.28 90.0449C280.489 92.7612 275.967 94.1194 270.713 94.1194ZM270.713 84.672C273.608 84.672 276.086 83.7168 278.146 81.8064C280.205 79.896 281.772 77.1499 282.847 73.5679C283.921 69.986 284.459 65.7026 284.459 60.7177V60.6281C284.459 55.6432 283.921 51.3747 282.847 47.8226C281.772 44.2407 280.205 41.5095 278.146 39.6289C276.086 37.7186 273.608 36.7634 270.713 36.7634C267.788 36.7634 265.295 37.7186 263.236 39.6289C261.206 41.5095 259.654 44.2407 258.579 47.8226C257.505 51.3747 256.967 55.6432 256.967 60.6281V60.7177C256.967 65.7026 257.505 69.986 258.579 73.5679C259.654 77.1499 261.206 79.896 263.236 81.8064C265.295 83.7168 267.788 84.672 270.713 84.672ZM310.562 83.5974C308.741 83.5974 307.204 82.9705 305.95 81.7169C304.697 80.4632 304.07 78.9408 304.07 77.1499C304.07 75.329 304.697 73.7918 305.95 72.5381C307.204 71.2844 308.741 70.6576 310.562 70.6576C312.353 70.6576 313.876 71.2844 315.129 72.5381C316.383 73.7918 317.01 75.329 317.01 77.1499C317.01 78.9408 316.383 80.4632 315.129 81.7169C313.876 82.9705 312.353 83.5974 310.562 83.5974ZM310.562 50.6882C308.741 50.6882 307.204 50.0763 305.95 48.8525C304.697 47.5988 304.07 46.0615 304.07 44.2407C304.07 42.4199 304.697 40.8975 305.95 39.6737C307.204 38.42 308.741 37.7932 310.562 37.7932C312.353 37.7932 313.876 38.42 315.129 39.6737C316.383 40.8975 317.01 42.4199 317.01 44.2407C317.01 46.0615 316.383 47.5988 315.129 48.8525C313.876 50.0763 312.353 50.6882 310.562 50.6882ZM350.411 94.1194C345.128 94.1194 340.591 92.7612 336.8 90.0449C333.009 87.3286 330.099 83.478 328.069 78.4931C326.039 73.4784 325.024 67.5532 325.024 60.7177V60.6281C325.024 53.7926 326.039 47.8823 328.069 42.8975C330.099 37.8827 333.009 34.0321 336.8 31.3457C340.591 28.6294 345.128 27.2712 350.411 27.2712C355.665 27.2712 360.187 28.6294 363.978 31.3457C367.799 34.0321 370.724 37.8827 372.754 42.8975C374.784 47.8823 375.798 53.7926 375.798 60.6281V60.7177C375.798 67.5532 374.784 73.4784 372.754 78.4931C370.724 83.478 367.799 87.3286 363.978 90.0449C360.187 92.7612 355.665 94.1194 350.411 94.1194ZM350.411 84.672C353.307 84.672 355.784 83.7168 357.844 81.8064C359.904 79.896 361.471 77.1499 362.545 73.5679C363.62 69.986 364.157 65.7026 364.157 60.7177V60.6281C364.157 55.6432 363.62 51.3747 362.545 47.8226C361.471 44.2407 359.904 41.5095 357.844 39.6289C355.784 37.7186 353.307 36.7634 350.411 36.7634C347.486 36.7634 344.994 37.7186 342.934 39.6289C340.904 41.5095 339.352 44.2407 338.278 47.8226C337.203 51.3747 336.666 55.6432 336.666 60.6281V60.7177C336.666 65.7026 337.203 69.986 338.278 73.5679C339.352 77.1499 340.904 79.896 342.934 81.8064C344.994 83.7168 347.486 84.672 350.411 84.672ZM408.887 94.1194C403.603 94.1194 399.066 92.7612 395.275 90.0449C391.484 87.3286 388.574 83.478 386.544 78.4931C384.515 73.4784 383.5 67.5532 383.5 60.7177V60.6281C383.5 53.7926 384.515 47.8823 386.544 42.8975C388.574 37.8827 391.484 34.0321 395.275 31.3457C399.066 28.6294 403.603 27.2712 408.887 27.2712C414.14 27.2712 418.663 28.6294 422.453 31.3457C426.274 34.0321 429.199 37.8827 431.229 42.8975C433.259 47.8823 434.274 53.7926 434.274 60.6281V60.7177C434.274 67.5532 433.259 73.4784 431.229 78.4931C429.199 83.478 426.274 87.3286 422.453 90.0449C418.663 92.7612 414.14 94.1194 408.887 94.1194ZM408.887 84.672C411.782 84.672 414.26 83.7168 416.319 81.8064C418.379 79.896 419.946 77.1499 421.021 73.5679C422.095 69.986 422.633 65.7026 422.633 60.7177V60.6281C422.633 55.6432 422.095 51.3747 421.021 47.8226C419.946 44.2407 418.379 41.5095 416.319 39.6289C414.26 37.7186 411.782 36.7634 408.887 36.7634C405.962 36.7634 403.469 37.7186 401.409 39.6289C399.38 41.5095 397.827 44.2407 396.753 47.8226C395.678 51.3747 395.141 55.6432 395.141 60.6281V60.7177C395.141 65.7026 395.678 69.986 396.753 73.5679C397.827 77.1499 399.38 79.896 401.409 81.8064C403.469 83.7168 405.962 84.672 408.887 84.672Z" fill="black"/>
<g filter="url(#filter1_d_244_215)">
<path d="M260 897C121.929 897 10 785.071 10 647L10 357C10 218.929 121.929 107 260 107H360C498.071 107 610 218.929 610 357V647C610 785.071 498.071 897 360 897H260Z" fill="#262626"/>
</g>
<circle cx="310" cy="313" r="163" stroke="white" stroke-width="12"/>
<path d="M240 274.8C240 263.788 240 258.281 242.109 254.06C244.045 250.186 247.186 247.045 251.06 245.109C255.281 243 260.788 243 271.8 243H348.2C359.212 243 364.719 243 368.94 245.109C372.814 247.045 375.955 250.186 377.891 254.06C380 258.281 380 263.788 380 274.8V351.2C380 362.212 380 367.719 377.891 371.94C375.955 375.814 372.814 378.955 368.94 380.891C364.719 383 359.212 383 348.2 383H271.8C260.788 383 255.281 383 251.06 380.891C247.186 378.955 244.045 375.814 242.109 371.94C240 367.719 240 362.212 240 351.2V274.8Z" fill="#FA3532"/>
<circle cx="310" cy="691" r="163" stroke="white" stroke-width="12"/>
<path d="M282 635L371.5 688.5ZM282 635V691.25V747.5" stroke="white" stroke-width="15" stroke-linecap="round" stroke-linejoin="round"/>
<defs>
<filter id="filter0_d_244_215" x="0" y="0" width="620" height="810" filterUnits="userSpaceOnUse" color-interpolation-filters="sRGB">
<feFlood flood-opacity="0" result="BackgroundImageFix"/>
<feColorMatrix in="SourceAlpha" type="matrix" values="0 0 0 0 0 0 0 0 0 0 0 0 0 0 0 0 0 0 127 0" result="hardAlpha"/>
<feOffset dy="4"/>
<feGaussianBlur stdDeviation="5"/>
<feComposite in2="hardAlpha" operator="out"/>
<feColorMatrix type="matrix" values="0 0 0 0 0 0 0 0 0 0 0 0 0 0 0 0 0 0 0.25 0"/>
<feBlend mode="normal" in2="BackgroundImageFix" result="effect1_dropShadow_244_215"/>
<feBlend mode="normal" in="SourceGraphic" in2="effect1_dropShadow_244_215" result="shape"/>
</filter>
<filter id="filter1_d_244_215" x="0" y="101" width="620" height="810" filterUnits="userSpaceOnUse" color-interpolation-filters="sRGB">
<feFlood flood-opacity="0" result="BackgroundImageFix"/>
<feColorMatrix in="SourceAlpha" type="matrix" values="0 0 0 0 0 0 0 0 0 0 0 0 0 0 0 0 0 0 127 0" result="hardAlpha"/>
<feOffset dy="4"/>
<feGaussianBlur stdDeviation="5"/>
<feComposite in2="hardAlpha" operator="out"/>
<feColorMatrix type="matrix" values="0 0 0 0 0 0 0 0 0 0 0 0 0 0 0 0 0 0 0.25 0"/>
<feBlend mode="normal" in2="BackgroundImageFix" result="effect1_dropShadow_244_215"/>
<feBlend mode="normal" in="SourceGraphic" in2="effect1_dropShadow_244_215" result="shape"/>
</filter>
</defs>
</svg>
