<svg width="555" height="555" viewBox="0 0 555 555" fill="none" xmlns="http://www.w3.org/2000/svg">
<g filter="url(#filter0_d_244_204)">
<path d="M232.742 542.468C109.146 542.468 8.95173 442.273 8.95173 318.677L8.95173 229.161C8.95173 105.565 109.146 5.37097 232.742 5.37097H322.258C445.854 5.37097 546.048 105.565 546.048 229.161V318.677C546.048 442.273 445.854 542.468 322.258 542.468H232.742Z" fill="#262626"/>
</g>
<circle cx="277.5" cy="273.919" r="145.912" stroke="white" stroke-width="10.7398"/>
<path d="M411.774 273.919C411.774 348.077 351.658 408.193 277.5 408.193C203.342 408.193 143.226 348.077 143.226 273.919C143.226 199.762 203.342 139.645 277.5 139.645C351.658 139.645 411.774 199.762 411.774 273.919Z" fill="#FA3532"/>
<defs>
<filter id="filter0_d_244_204" x="0.000118279" y="3.81545e-06" width="555" height="555" filterUnits="userSpaceOnUse" color-interpolation-filters="sRGB">
<feFlood flood-opacity="0" result="BackgroundImageFix"/>
<feColorMatrix in="SourceAlpha" type="matrix" values="0 0 0 0 0 0 0 0 0 0 0 0 0 0 0 0 0 0 127 0" result="hardAlpha"/>
<feOffset dy="3.57993"/>
<feGaussianBlur stdDeviation="4.47492"/>
<feComposite in2="hardAlpha" operator="out"/>
<feColorMatrix type="matrix" values="0 0 0 0 0 0 0 0 0 0 0 0 0 0 0 0 0 0 0.25 0"/>
<feBlend mode="normal" in2="BackgroundImageFix" result="effect1_dropShadow_244_204"/>
<feBlend mode="normal" in="SourceGraphic" in2="effect1_dropShadow_244_204" result="shape"/>
</filter>
</defs>
</svg>
