<svg width="620" height="620" viewBox="0 0 620 620" fill="none" xmlns="http://www.w3.org/2000/svg">
<g filter="url(#filter0_d_83_267)">
<path d="M260 606C121.929 606 10 494.071 10 356L10 256C10 117.929 121.929 6 260 6H360C498.071 6 610 117.929 610 256V356C610 494.071 498.071 606 360 606H260Z" fill="#262626"/>
</g>
<circle cx="310" cy="306" r="163" stroke="white" stroke-width="12"/>
<path d="M460 306C460 388.843 392.843 456 310 456C227.157 456 160 388.843 160 306C160 223.157 227.157 156 310 156C392.843 156 460 223.157 460 306Z" fill="#FA3532"/>
<defs>
<filter id="filter0_d_83_267" x="0" y="0" width="620" height="620" filterUnits="userSpaceOnUse" color-interpolation-filters="sRGB">
<feFlood flood-opacity="0" result="BackgroundImageFix"/>
<feColorMatrix in="SourceAlpha" type="matrix" values="0 0 0 0 0 0 0 0 0 0 0 0 0 0 0 0 0 0 127 0" result="hardAlpha"/>
<feOffset dy="4"/>
<feGaussianBlur stdDeviation="5"/>
<feComposite in2="hardAlpha" operator="out"/>
<feColorMatrix type="matrix" values="0 0 0 0 0 0 0 0 0 0 0 0 0 0 0 0 0 0 0.25 0"/>
<feBlend mode="normal" in2="BackgroundImageFix" result="effect1_dropShadow_83_267"/>
<feBlend mode="normal" in="SourceGraphic" in2="effect1_dropShadow_83_267" result="shape"/>
</filter>
</defs>
</svg>
