<svg width="555" height="816" viewBox="0 0 555 816" fill="none" xmlns="http://www.w3.org/2000/svg">
<g filter="url(#filter0_d_243_72)">
<path d="M232.742 712.548C109.146 712.548 8.95173 612.354 8.95173 488.758L8.95173 229.161C8.95173 105.565 109.146 5.37094 232.742 5.37094H322.258C445.854 5.37094 546.048 105.565 546.048 229.161V488.758C546.048 612.354 445.854 712.548 322.258 712.548H232.742Z" fill="#16C432"/>
</g>
<path d="M189.987 84.3884C185.257 84.3884 181.196 83.1727 177.802 80.7411C174.409 78.3096 171.804 74.8627 169.987 70.4004C168.17 65.9114 167.261 60.6075 167.261 54.4885V54.4084C167.261 48.2895 168.17 42.9989 169.987 38.5366C171.804 34.0476 174.409 30.6007 177.802 28.1959C181.196 25.7643 185.257 24.5486 189.987 24.5486C194.69 24.5486 198.738 25.7643 202.131 28.1959C205.551 30.6007 208.17 34.0476 209.987 38.5366C211.804 42.9989 212.712 48.2895 212.712 54.4084V54.4885C212.712 60.6075 211.804 65.9114 209.987 70.4004C208.17 74.8627 205.551 78.3096 202.131 80.7411C198.738 83.1727 194.69 84.3884 189.987 84.3884ZM189.987 75.9315C192.579 75.9315 194.797 75.0764 196.64 73.3663C198.484 71.6563 199.887 69.198 200.849 65.9916C201.811 62.7852 202.292 58.9508 202.292 54.4885V54.4084C202.292 49.9461 201.811 46.1251 200.849 42.9454C199.887 39.739 198.484 37.2941 196.64 35.6107C194.797 33.9006 192.579 33.0456 189.987 33.0456C187.368 33.0456 185.137 33.9006 183.293 35.6107C181.477 37.2941 180.087 39.739 179.125 42.9454C178.163 46.1251 177.682 49.9461 177.682 54.4084V54.4885C177.682 58.9508 178.163 62.7852 179.125 65.9916C180.087 69.198 181.477 71.6563 183.293 73.3663C185.137 75.0764 187.368 75.9315 189.987 75.9315ZM242.332 84.3884C237.602 84.3884 233.541 83.1727 230.147 80.7411C226.754 78.3096 224.149 74.8627 222.332 70.4004C220.515 65.9114 219.606 60.6075 219.606 54.4885V54.4084C219.606 48.2895 220.515 42.9989 222.332 38.5366C224.149 34.0476 226.754 30.6007 230.147 28.1959C233.541 25.7643 237.602 24.5486 242.332 24.5486C247.035 24.5486 251.083 25.7643 254.476 28.1959C257.896 30.6007 260.515 34.0476 262.332 38.5366C264.149 42.9989 265.057 48.2895 265.057 54.4084V54.4885C265.057 60.6075 264.149 65.9114 262.332 70.4004C260.515 74.8627 257.896 78.3096 254.476 80.7411C251.083 83.1727 247.035 84.3884 242.332 84.3884ZM242.332 75.9315C244.924 75.9315 247.141 75.0764 248.985 73.3663C250.829 71.6563 252.232 69.198 253.194 65.9916C254.155 62.7852 254.636 58.9508 254.636 54.4885V54.4084C254.636 49.9461 254.155 46.1251 253.194 42.9454C252.232 39.739 250.829 37.2941 248.985 35.6107C247.141 33.9006 244.924 33.0456 242.332 33.0456C239.713 33.0456 237.482 33.9006 235.638 35.6107C233.821 37.2941 232.432 39.739 231.47 42.9454C230.508 46.1251 230.027 49.9461 230.027 54.4084V54.4885C230.027 58.9508 230.508 62.7852 231.47 65.9916C232.432 69.198 233.821 71.6563 235.638 73.3663C237.482 75.0764 239.713 75.9315 242.332 75.9315ZM278.003 74.9696C276.373 74.9696 274.997 74.4084 273.875 73.2862C272.753 72.1639 272.192 70.8012 272.192 69.198C272.192 67.5681 272.753 66.192 273.875 65.0697C274.997 63.9475 276.373 63.3864 278.003 63.3864C279.606 63.3864 280.969 63.9475 282.091 65.0697C283.214 66.192 283.775 67.5681 283.775 69.198C283.775 70.8012 283.214 72.1639 282.091 73.2862C280.969 74.4084 279.606 74.9696 278.003 74.9696ZM278.003 45.5106C276.373 45.5106 274.997 44.9628 273.875 43.8673C272.753 42.745 272.192 41.3689 272.192 39.739C272.192 38.1091 272.753 36.7463 273.875 35.6508C274.997 34.5286 276.373 33.9674 278.003 33.9674C279.606 33.9674 280.969 34.5286 282.091 35.6508C283.214 36.7463 283.775 38.1091 283.775 39.739C283.775 41.3689 283.214 42.745 282.091 43.8673C280.969 44.9628 279.606 45.5106 278.003 45.5106ZM313.675 84.3884C308.945 84.3884 304.884 83.1727 301.49 80.7411C298.097 78.3096 295.492 74.8627 293.675 70.4004C291.858 65.9114 290.949 60.6075 290.949 54.4885V54.4084C290.949 48.2895 291.858 42.9989 293.675 38.5366C295.492 34.0476 298.097 30.6007 301.49 28.1959C304.884 25.7643 308.945 24.5486 313.675 24.5486C318.377 24.5486 322.426 25.7643 325.819 28.1959C329.239 30.6007 331.858 34.0476 333.675 38.5366C335.492 42.9989 336.4 48.2895 336.4 54.4084V54.4885C336.4 60.6075 335.492 65.9114 333.675 70.4004C331.858 74.8627 329.239 78.3096 325.819 80.7411C322.426 83.1727 318.377 84.3884 313.675 84.3884ZM313.675 75.9315C316.267 75.9315 318.484 75.0764 320.328 73.3663C322.172 71.6563 323.574 69.198 324.536 65.9916C325.498 62.7852 325.979 58.9508 325.979 54.4885V54.4084C325.979 49.9461 325.498 46.1251 324.536 42.9454C323.574 39.739 322.172 37.2941 320.328 35.6107C318.484 33.9006 316.267 33.0456 313.675 33.0456C311.056 33.0456 308.825 33.9006 306.981 35.6107C305.164 37.2941 303.775 39.739 302.813 42.9454C301.851 46.1251 301.37 49.9461 301.37 54.4084V54.4885C301.37 58.9508 301.851 62.7852 302.813 65.9916C303.775 69.198 305.164 71.6563 306.981 73.3663C308.825 75.0764 311.056 75.9315 313.675 75.9315ZM366.019 84.3884C361.29 84.3884 357.229 83.1727 353.835 80.7411C350.442 78.3096 347.836 74.8627 346.019 70.4004C344.202 65.9114 343.294 60.6075 343.294 54.4885V54.4084C343.294 48.2895 344.202 42.9989 346.019 38.5366C347.836 34.0476 350.442 30.6007 353.835 28.1959C357.229 25.7643 361.29 24.5486 366.019 24.5486C370.722 24.5486 374.77 25.7643 378.164 28.1959C381.584 30.6007 384.203 34.0476 386.02 38.5366C387.837 42.9989 388.745 48.2895 388.745 54.4084V54.4885C388.745 60.6075 387.837 65.9114 386.02 70.4004C384.203 74.8627 381.584 78.3096 378.164 80.7411C374.77 83.1727 370.722 84.3884 366.019 84.3884ZM366.019 75.9315C368.611 75.9315 370.829 75.0764 372.673 73.3663C374.517 71.6563 375.919 69.198 376.881 65.9916C377.843 62.7852 378.324 58.9508 378.324 54.4885V54.4084C378.324 49.9461 377.843 46.1251 376.881 42.9454C375.919 39.739 374.517 37.2941 372.673 35.6107C370.829 33.9006 368.611 33.0456 366.019 33.0456C363.401 33.0456 361.17 33.9006 359.326 35.6107C357.509 37.2941 356.12 39.739 355.158 42.9454C354.196 46.1251 353.715 49.9461 353.715 54.4084V54.4885C353.715 58.9508 354.196 62.7852 355.158 65.9916C356.12 69.198 357.509 71.6563 359.326 73.3663C361.17 75.0764 363.401 75.9315 366.019 75.9315Z" fill="black"/>
<g filter="url(#filter1_d_243_72)">
<path d="M232.742 802.959C109.146 802.959 8.95173 702.765 8.95173 579.169L8.95173 319.572C8.95173 195.976 109.146 95.7822 232.742 95.7822H322.258C445.854 95.7822 546.048 195.977 546.048 319.572V579.169C546.048 702.765 445.854 802.959 322.258 802.959H232.742Z" fill="#262626"/>
</g>
<circle cx="277.5" cy="280.185" r="145.912" stroke="white" stroke-width="10.7398"/>
<path d="M214.839 245.99C214.839 236.132 214.839 231.203 216.727 227.425C218.46 223.957 221.272 221.145 224.74 219.412C228.518 217.524 233.447 217.524 243.305 217.524H311.695C321.553 217.524 326.482 217.524 330.26 219.412C333.729 221.145 336.54 223.957 338.273 227.425C340.161 231.203 340.161 236.132 340.161 245.99V314.381C340.161 324.238 340.161 329.167 338.273 332.946C336.54 336.414 333.729 339.226 330.26 340.959C326.482 342.847 321.553 342.847 311.695 342.847H243.305C233.447 342.847 228.518 342.847 224.74 340.959C221.272 339.226 218.46 336.414 216.727 332.946C214.839 329.167 214.839 324.238 214.839 314.381V245.99Z" fill="#FA3532"/>
<circle cx="277.5" cy="618.556" r="145.912" stroke="white" stroke-width="10.7398"/>
<path d="M305.698 568.427V669.133M249.75 568.427V669.133" stroke="white" stroke-width="17.8997" stroke-linecap="round" stroke-linejoin="round"/>
<defs>
<filter id="filter0_d_243_72" x="0.000117325" y="-2.74236e-05" width="555" height="725.08" filterUnits="userSpaceOnUse" color-interpolation-filters="sRGB">
<feFlood flood-opacity="0" result="BackgroundImageFix"/>
<feColorMatrix in="SourceAlpha" type="matrix" values="0 0 0 0 0 0 0 0 0 0 0 0 0 0 0 0 0 0 127 0" result="hardAlpha"/>
<feOffset dy="3.57993"/>
<feGaussianBlur stdDeviation="4.47492"/>
<feComposite in2="hardAlpha" operator="out"/>
<feColorMatrix type="matrix" values="0 0 0 0 0 0 0 0 0 0 0 0 0 0 0 0 0 0 0.25 0"/>
<feBlend mode="normal" in2="BackgroundImageFix" result="effect1_dropShadow_243_72"/>
<feBlend mode="normal" in="SourceGraphic" in2="effect1_dropShadow_243_72" result="shape"/>
</filter>
<filter id="filter1_d_243_72" x="0.000117325" y="90.4112" width="555" height="725.08" filterUnits="userSpaceOnUse" color-interpolation-filters="sRGB">
<feFlood flood-opacity="0" result="BackgroundImageFix"/>
<feColorMatrix in="SourceAlpha" type="matrix" values="0 0 0 0 0 0 0 0 0 0 0 0 0 0 0 0 0 0 127 0" result="hardAlpha"/>
<feOffset dy="3.57993"/>
<feGaussianBlur stdDeviation="4.47492"/>
<feComposite in2="hardAlpha" operator="out"/>
<feColorMatrix type="matrix" values="0 0 0 0 0 0 0 0 0 0 0 0 0 0 0 0 0 0 0.25 0"/>
<feBlend mode="normal" in2="BackgroundImageFix" result="effect1_dropShadow_243_72"/>
<feBlend mode="normal" in="SourceGraphic" in2="effect1_dropShadow_243_72" result="shape"/>
</filter>
</defs>
</svg>
