<svg width="620" height="927" viewBox="0 0 620 927" fill="none" xmlns="http://www.w3.org/2000/svg">
<g filter="url(#filter0_d_83_269)">
<path d="M260 913C121.929 913 10 801.071 10 663L10 256C10 117.929 121.929 6 260 6H360C498.071 6 610 117.929 610 256V663C610 801.071 498.071 913 360 913H260Z" fill="#262626"/>
</g>
<circle cx="310" cy="242" r="163" stroke="white" stroke-width="12"/>
<path d="M240 203.8C240 192.788 240 187.281 242.109 183.06C244.045 179.186 247.186 176.045 251.06 174.109C255.281 172 260.788 172 271.8 172H348.2C359.212 172 364.719 172 368.94 174.109C372.814 176.045 375.955 179.186 377.891 183.06C380 187.281 380 192.788 380 203.8V280.2C380 291.212 380 296.719 377.891 300.94C375.955 304.814 372.814 307.955 368.94 309.891C364.719 312 359.212 312 348.2 312H271.8C260.788 312 255.281 312 251.06 309.891C247.186 307.955 244.045 304.814 242.109 300.94C240 296.719 240 291.212 240 280.2V203.8Z" fill="#FA3532"/>
<circle cx="310" cy="677" r="163" stroke="white" stroke-width="12"/>
<path d="M341.5 621V733.5M279 621V733.5" stroke="white" stroke-width="20" stroke-linecap="round" stroke-linejoin="round"/>
<defs>
<filter id="filter0_d_83_269" x="0" y="0" width="620" height="927" filterUnits="userSpaceOnUse" color-interpolation-filters="sRGB">
<feFlood flood-opacity="0" result="BackgroundImageFix"/>
<feColorMatrix in="SourceAlpha" type="matrix" values="0 0 0 0 0 0 0 0 0 0 0 0 0 0 0 0 0 0 127 0" result="hardAlpha"/>
<feOffset dy="4"/>
<feGaussianBlur stdDeviation="5"/>
<feComposite in2="hardAlpha" operator="out"/>
<feColorMatrix type="matrix" values="0 0 0 0 0 0 0 0 0 0 0 0 0 0 0 0 0 0 0.25 0"/>
<feBlend mode="normal" in2="BackgroundImageFix" result="effect1_dropShadow_83_269"/>
<feBlend mode="normal" in="SourceGraphic" in2="effect1_dropShadow_83_269" result="shape"/>
</filter>
</defs>
</svg>
