<svg width="537" height="537" viewBox="0 0 537 537" fill="none" xmlns="http://www.w3.org/2000/svg">
<path d="M537 268.5C537 416.788 416.788 537 268.5 537C120.211 537 0 416.788 0 268.5C0 120.211 120.211 0 268.5 0C416.788 0 537 120.211 537 268.5Z" fill="#16C432"/>
<path opacity="0.9" d="M117.234 362.405L66.4974 173.222H101.633L134.54 315.994H135.196L173.085 173.222H203.763L241.652 315.994H242.307L275.214 173.222H310.219L259.613 362.405H226.968L188.817 226.581H188.03L149.879 362.405H117.234ZM349.55 362.405V336.184H404.22C416.631 336.184 426.071 333.693 432.538 328.711C439.093 323.729 442.371 316.475 442.371 306.948V306.686C442.371 300.305 440.842 294.974 437.782 290.691C434.811 286.321 430.353 283.087 424.41 280.989C418.467 278.804 411.081 277.712 402.253 277.712H349.55V253.195H396.878C409.114 253.195 418.423 250.792 424.803 245.985C431.184 241.178 434.374 234.273 434.374 225.27V225.008C434.374 216.88 431.577 210.587 425.983 206.129C420.477 201.672 412.698 199.443 402.647 199.443H349.55V173.222H411.168C422.706 173.222 432.669 175.189 441.06 179.122C449.538 182.968 456.093 188.43 460.726 195.51C465.445 202.589 467.805 210.936 467.805 220.551V220.813C467.805 227.63 466.232 234.011 463.085 239.954C460.026 245.81 455.787 250.748 450.368 254.769C444.949 258.702 438.875 261.149 432.145 262.11V262.766C440.973 263.553 448.751 266 455.481 270.108C462.211 274.216 467.456 279.591 471.214 286.233C474.972 292.789 476.851 300.262 476.851 308.652V308.914C476.851 319.927 474.229 329.454 468.985 337.495C463.741 345.448 456.268 351.61 446.566 355.98C436.952 360.263 425.415 362.405 411.955 362.405H349.55ZM332.637 362.405V173.222H366.462V362.405H332.637Z" fill="white"/>
</svg>
