<svg width="291" height="291" viewBox="0 0 291 291" fill="none" xmlns="http://www.w3.org/2000/svg">
<path d="M291 145.5C291 225.857 225.857 291 145.5 291C65.1426 291 0 225.857 0 145.5C0 65.1426 65.1426 0 145.5 0C225.857 0 291 65.1426 291 145.5Z" fill="#262626"/>
<path opacity="0.9" d="M63.5293 196.378L36.0349 93.8602H55.075L72.9072 171.228H73.2625L93.7945 93.8602H110.419L130.951 171.228H131.306L149.138 93.8602H168.107L140.684 196.378H122.994L102.32 122.776H101.894L81.2195 196.378H63.5293ZM189.421 196.378V182.169H219.047C225.772 182.169 230.887 180.819 234.392 178.12C237.945 175.42 239.721 171.489 239.721 166.326V166.184C239.721 162.726 238.892 159.837 237.234 157.516C235.624 155.148 233.208 153.396 229.988 152.259C226.767 151.075 222.765 150.483 217.981 150.483H189.421V137.198H215.068C221.699 137.198 226.743 135.895 230.201 133.29C233.658 130.685 235.387 126.943 235.387 122.065V121.923C235.387 117.518 233.871 114.108 230.84 111.693C227.856 109.277 223.641 108.069 218.194 108.069H189.421V93.8602H222.812C229.064 93.8602 234.463 94.9259 239.01 97.0573C243.605 99.1412 247.157 102.101 249.667 105.938C252.225 109.774 253.503 114.297 253.503 119.507V119.65C253.503 123.344 252.651 126.801 250.946 130.022C249.288 133.195 246.991 135.871 244.054 138.05C241.118 140.182 237.826 141.508 234.179 142.029V142.384C238.963 142.81 243.178 144.136 246.825 146.362C250.472 148.589 253.314 151.501 255.351 155.101C257.387 158.653 258.406 162.703 258.406 167.25V167.392C258.406 173.36 256.985 178.522 254.143 182.88C251.301 187.19 247.251 190.529 241.994 192.897C236.784 195.218 230.532 196.378 223.238 196.378H189.421ZM180.256 196.378V93.8602H198.586V196.378H180.256Z" fill="white"/>
</svg>
