<svg width="737" height="130" viewBox="0 0 737 130" fill="none" xmlns="http://www.w3.org/2000/svg">
<g clip-path="url(#clip0_140_197)">
<rect x="38" y="61" width="561" height="8" rx="4" fill="#262626"/>
<rect x="-526" y="60.5" width="592" height="8" rx="4" fill="#00AEFF"/>
</g>
<circle cx="65.5" cy="64.5" r="27.5" fill="#44C4FF"/>
<g clip-path="url(#clip1_140_197)">
<path d="M640 47C640 41.4772 644.477 37 650 37H685C690.523 37 695 41.4772 695 47V82C695 87.5228 690.523 92 685 92H650C644.477 92 640 87.5228 640 82V47Z" fill="#262626"/>
<path d="M668 78.4883C665.695 78.4883 663.716 77.8958 662.062 76.7109C660.409 75.526 659.139 73.8464 658.254 71.6719C657.368 69.4844 656.926 66.8997 656.926 63.918V63.8789C656.926 60.8971 657.368 58.319 658.254 56.1445C659.139 53.957 660.409 52.2773 662.062 51.1055C663.716 49.9206 665.695 49.3281 668 49.3281C670.292 49.3281 672.264 49.9206 673.918 51.1055C675.585 52.2773 676.861 53.957 677.746 56.1445C678.632 58.319 679.074 60.8971 679.074 63.8789V63.918C679.074 66.8997 678.632 69.4844 677.746 71.6719C676.861 73.8464 675.585 75.526 673.918 76.7109C672.264 77.8958 670.292 78.4883 668 78.4883ZM668 74.3672C669.263 74.3672 670.344 73.9505 671.242 73.1172C672.141 72.2839 672.824 71.0859 673.293 69.5234C673.762 67.9609 673.996 66.0924 673.996 63.918V63.8789C673.996 61.7044 673.762 59.8424 673.293 58.293C672.824 56.7305 672.141 55.5391 671.242 54.7188C670.344 53.8854 669.263 53.4688 668 53.4688C666.724 53.4688 665.637 53.8854 664.738 54.7188C663.853 55.5391 663.176 56.7305 662.707 58.293C662.238 59.8424 662.004 61.7044 662.004 63.8789V63.918C662.004 66.0924 662.238 67.9609 662.707 69.5234C663.176 71.0859 663.853 72.2839 664.738 73.1172C665.637 73.9505 666.724 74.3672 668 74.3672ZM667.863 126V102.602H667.746L660.461 107.602V102.992L667.824 97.8164H672.805V126H667.863ZM658.312 174V170.562L668.254 160.855C669.491 159.658 670.428 158.661 671.066 157.867C671.704 157.06 672.141 156.344 672.375 155.719C672.622 155.081 672.746 154.417 672.746 153.727V153.688C672.746 152.841 672.544 152.099 672.141 151.461C671.75 150.81 671.203 150.302 670.5 149.938C669.81 149.56 669.016 149.371 668.117 149.371C667.076 149.371 666.151 149.586 665.344 150.016C664.549 150.432 663.918 151.005 663.449 151.734C662.993 152.451 662.759 153.264 662.746 154.176V154.312H658.02V154.176C658.02 152.457 658.462 150.934 659.348 149.605C660.233 148.277 661.431 147.236 662.941 146.48C664.465 145.712 666.177 145.328 668.078 145.328C669.953 145.328 671.613 145.68 673.059 146.383C674.504 147.073 675.63 148.03 676.438 149.254C677.258 150.465 677.668 151.845 677.668 153.395V153.434C677.668 154.54 677.466 155.576 677.062 156.539C676.672 157.503 676.001 158.551 675.051 159.684C674.113 160.816 672.811 162.177 671.145 163.766L663.137 171.402L664.953 168.082V171.402L663.156 169.879H678.098V174H658.312ZM667.883 222.488C665.826 222.488 664.029 222.143 662.492 221.453C660.956 220.763 659.738 219.819 658.84 218.621C657.954 217.41 657.44 216.023 657.297 214.461L657.277 214.207H662.082L662.121 214.422C662.212 215.19 662.505 215.874 663 216.473C663.495 217.059 664.159 217.521 664.992 217.859C665.826 218.198 666.789 218.367 667.883 218.367C668.977 218.367 669.927 218.185 670.734 217.82C671.555 217.443 672.186 216.928 672.629 216.277C673.085 215.626 673.312 214.871 673.312 214.012V213.973C673.312 212.488 672.798 211.349 671.77 210.555C670.754 209.76 669.341 209.363 667.531 209.363H664.191V205.613H667.414C668.456 205.613 669.361 205.431 670.129 205.066C670.91 204.702 671.516 204.207 671.945 203.582C672.388 202.944 672.609 202.215 672.609 201.395V201.355C672.609 200.496 672.421 199.773 672.043 199.188C671.665 198.589 671.118 198.133 670.402 197.82C669.699 197.495 668.846 197.332 667.844 197.332C666.854 197.332 665.975 197.495 665.207 197.82C664.452 198.146 663.846 198.608 663.391 199.207C662.935 199.793 662.661 200.49 662.57 201.297L662.551 201.492H657.883L657.902 201.258C658.046 199.669 658.54 198.283 659.387 197.098C660.246 195.913 661.398 194.988 662.844 194.324C664.289 193.66 665.956 193.328 667.844 193.328C669.784 193.328 671.47 193.641 672.902 194.266C674.348 194.878 675.461 195.737 676.242 196.844C677.036 197.938 677.434 199.22 677.434 200.691V200.73C677.434 201.889 677.173 202.918 676.652 203.816C676.132 204.702 675.422 205.438 674.523 206.023C673.638 206.609 672.635 207.02 671.516 207.254V207.352C673.599 207.547 675.272 208.237 676.535 209.422C677.798 210.594 678.43 212.156 678.43 214.109V214.148C678.43 215.776 677.98 217.221 677.082 218.484C676.197 219.734 674.966 220.717 673.391 221.434C671.815 222.137 669.979 222.488 667.883 222.488ZM670.871 270V264.57H656.809V260.293C657.59 259.069 658.371 257.839 659.152 256.602C659.934 255.365 660.715 254.134 661.496 252.91C662.277 251.673 663.052 250.443 663.82 249.219C664.602 247.982 665.383 246.751 666.164 245.527C666.945 244.29 667.727 243.053 668.508 241.816H675.676V260.469H679.484V264.57H675.676V270H670.871ZM661.34 260.566H670.949V245.625H670.832C670.194 246.615 669.556 247.604 668.918 248.594C668.293 249.57 667.661 250.553 667.023 251.543C666.398 252.533 665.767 253.522 665.129 254.512C664.491 255.501 663.853 256.491 663.215 257.48C662.59 258.457 661.965 259.44 661.34 260.43V260.566ZM668.293 318.488C666.34 318.488 664.621 318.13 663.137 317.414C661.652 316.698 660.467 315.728 659.582 314.504C658.71 313.267 658.208 311.874 658.078 310.324L658.059 310.07H662.785L662.805 310.207C662.935 310.988 663.247 311.698 663.742 312.336C664.25 312.974 664.895 313.475 665.676 313.84C666.457 314.204 667.342 314.387 668.332 314.387C669.452 314.387 670.435 314.152 671.281 313.684C672.141 313.202 672.811 312.544 673.293 311.711C673.775 310.865 674.016 309.888 674.016 308.781V308.742C674.016 307.661 673.775 306.711 673.293 305.891C672.811 305.057 672.141 304.406 671.281 303.938C670.435 303.456 669.458 303.215 668.352 303.215C667.557 303.215 666.815 303.332 666.125 303.566C665.435 303.801 664.823 304.146 664.289 304.602C664.029 304.823 663.781 305.07 663.547 305.344C663.312 305.604 663.111 305.891 662.941 306.203H658.566L659.914 289.816H677.219V293.938H663.938L663.156 302.434H663.254C663.671 301.796 664.191 301.255 664.816 300.812C665.454 300.37 666.177 300.031 666.984 299.797C667.805 299.549 668.684 299.426 669.621 299.426C671.418 299.426 673.013 299.829 674.406 300.637C675.799 301.431 676.893 302.518 677.688 303.898C678.482 305.279 678.879 306.867 678.879 308.664V308.703C678.879 310.63 678.43 312.329 677.531 313.801C676.633 315.272 675.389 316.424 673.801 317.258C672.212 318.078 670.376 318.488 668.293 318.488ZM668.234 366.488C666.685 366.488 665.227 366.208 663.859 365.648C662.492 365.089 661.281 364.229 660.227 363.07C659.185 361.911 658.365 360.44 657.766 358.656C657.167 356.859 656.867 354.724 656.867 352.25V352.211C656.867 349.112 657.323 346.449 658.234 344.223C659.159 341.996 660.48 340.29 662.199 339.105C663.918 337.921 665.969 337.328 668.352 337.328C670.096 337.328 671.665 337.641 673.059 338.266C674.465 338.878 675.624 339.73 676.535 340.824C677.46 341.918 678.065 343.174 678.352 344.594L678.41 344.809H673.41L673.332 344.633C673.085 343.982 672.727 343.422 672.258 342.953C671.802 342.471 671.242 342.1 670.578 341.84C669.927 341.566 669.178 341.43 668.332 341.43C666.822 341.43 665.591 341.872 664.641 342.758C663.69 343.63 662.98 344.796 662.512 346.254C662.043 347.712 661.776 349.333 661.711 351.117C661.698 351.286 661.685 351.456 661.672 351.625C661.672 351.794 661.672 351.964 661.672 352.133L662.551 356.801C662.551 357.829 662.798 358.767 663.293 359.613C663.788 360.46 664.465 361.13 665.324 361.625C666.184 362.12 667.134 362.367 668.176 362.367C669.23 362.367 670.181 362.126 671.027 361.645C671.887 361.15 672.564 360.492 673.059 359.672C673.566 358.839 673.82 357.914 673.82 356.898V356.859C673.82 355.792 673.579 354.848 673.098 354.027C672.616 353.194 671.952 352.543 671.105 352.074C670.272 351.605 669.315 351.371 668.234 351.371C667.167 351.371 666.203 351.605 665.344 352.074C664.484 352.53 663.801 353.168 663.293 353.988C662.798 354.796 662.551 355.727 662.551 356.781V356.801H661.359V352.016H661.789C662.154 351.156 662.701 350.388 663.43 349.711C664.172 349.034 665.057 348.493 666.086 348.09C667.115 347.686 668.267 347.484 669.543 347.484C671.353 347.484 672.948 347.882 674.328 348.676C675.721 349.47 676.809 350.564 677.59 351.957C678.384 353.337 678.781 354.913 678.781 356.684V356.723C678.781 358.624 678.326 360.31 677.414 361.781C676.503 363.24 675.253 364.392 673.664 365.238C672.076 366.072 670.266 366.488 668.234 366.488ZM660.344 414L672.707 390.035V389.938H658.059V385.816H677.668V390.016L665.617 414H660.344ZM668 462.488C665.852 462.488 663.951 462.143 662.297 461.453C660.656 460.763 659.374 459.806 658.449 458.582C657.525 457.345 657.062 455.926 657.062 454.324V454.285C657.062 453.1 657.329 452.02 657.863 451.043C658.397 450.053 659.139 449.227 660.09 448.562C661.053 447.885 662.154 447.423 663.391 447.176V447.059C661.802 446.629 660.52 445.861 659.543 444.754C658.566 443.647 658.078 442.345 658.078 440.848V440.809C658.078 439.376 658.501 438.1 659.348 436.98C660.194 435.848 661.366 434.956 662.863 434.305C664.361 433.654 666.073 433.328 668 433.328C669.94 433.328 671.652 433.654 673.137 434.305C674.634 434.956 675.806 435.848 676.652 436.98C677.499 438.1 677.922 439.376 677.922 440.809V440.848C677.922 442.345 677.434 443.647 676.457 444.754C675.493 445.861 674.211 446.629 672.609 447.059V447.176C673.859 447.423 674.96 447.885 675.91 448.562C676.861 449.227 677.603 450.053 678.137 451.043C678.671 452.02 678.938 453.1 678.938 454.285V454.324C678.938 455.926 678.475 457.345 677.551 458.582C676.626 459.806 675.337 460.763 673.684 461.453C672.043 462.143 670.148 462.488 668 462.488ZM668 458.641C669.133 458.641 670.129 458.445 670.988 458.055C671.848 457.651 672.525 457.104 673.02 456.414C673.514 455.711 673.762 454.91 673.762 454.012V453.973C673.762 453.061 673.514 452.26 673.02 451.57C672.538 450.867 671.861 450.314 670.988 449.91C670.129 449.507 669.133 449.305 668 449.305C666.867 449.305 665.865 449.507 664.992 449.91C664.133 450.314 663.456 450.867 662.961 451.57C662.479 452.26 662.238 453.061 662.238 453.973V454.012C662.238 454.91 662.486 455.711 662.98 456.414C663.475 457.104 664.152 457.651 665.012 458.055C665.884 458.445 666.88 458.641 668 458.641ZM668 445.457C668.977 445.457 669.836 445.281 670.578 444.93C671.32 444.578 671.9 444.09 672.316 443.465C672.733 442.84 672.941 442.124 672.941 441.316V441.277C672.941 440.457 672.733 439.741 672.316 439.129C671.9 438.504 671.32 438.016 670.578 437.664C669.836 437.312 668.977 437.137 668 437.137C667.023 437.137 666.164 437.312 665.422 437.664C664.68 438.016 664.1 438.504 663.684 439.129C663.267 439.741 663.059 440.457 663.059 441.277V441.316C663.059 442.124 663.267 442.84 663.684 443.465C664.1 444.09 664.68 444.578 665.422 444.93C666.164 445.281 667.023 445.457 668 445.457ZM667.746 481.328C669.296 481.328 670.754 481.608 672.121 482.168C673.501 482.728 674.712 483.587 675.754 484.746C676.809 485.905 677.629 487.383 678.215 489.18C678.814 490.964 679.113 493.092 679.113 495.566V495.605C679.113 498.704 678.651 501.367 677.727 503.594C676.815 505.82 675.5 507.526 673.781 508.711C672.076 509.896 670.025 510.488 667.629 510.488C665.897 510.488 664.328 510.176 662.922 509.551C661.529 508.926 660.37 508.073 659.445 506.992C658.534 505.898 657.928 504.642 657.629 503.223L657.59 503.008H662.57L662.648 503.184C662.909 503.822 663.267 504.382 663.723 504.863C664.178 505.345 664.738 505.723 665.402 505.996C666.066 506.257 666.815 506.387 667.648 506.387C669.172 506.387 670.402 505.951 671.34 505.078C672.29 504.193 673 503.021 673.469 501.562C673.951 500.091 674.217 498.47 674.27 496.699C674.283 496.53 674.289 496.361 674.289 496.191C674.302 496.022 674.309 495.853 674.309 495.684L673.43 491.016C673.43 489.974 673.182 489.036 672.688 488.203C672.193 487.357 671.516 486.686 670.656 486.191C669.81 485.697 668.859 485.449 667.805 485.449C666.763 485.449 665.812 485.697 664.953 486.191C664.094 486.673 663.41 487.331 662.902 488.164C662.408 488.984 662.16 489.902 662.16 490.918V490.957C662.16 492.025 662.401 492.975 662.883 493.809C663.365 494.629 664.029 495.273 664.875 495.742C665.721 496.211 666.678 496.445 667.746 496.445C668.827 496.445 669.797 496.217 670.656 495.762C671.516 495.293 672.193 494.655 672.688 493.848C673.182 493.027 673.43 492.09 673.43 491.035V491.016H674.621V495.801H674.211C673.833 496.66 673.28 497.428 672.551 498.105C671.822 498.783 670.943 499.323 669.914 499.727C668.885 500.13 667.733 500.332 666.457 500.332C664.647 500.332 663.046 499.935 661.652 499.141C660.259 498.346 659.165 497.253 658.371 495.859C657.59 494.466 657.199 492.891 657.199 491.133V491.094C657.199 489.193 657.655 487.513 658.566 486.055C659.491 484.583 660.741 483.431 662.316 482.598C663.905 481.751 665.715 481.328 667.746 481.328ZM655.109 558V534.602H654.992L647.707 539.602V534.992L655.07 529.816H660.051V558H655.109ZM677.336 558.488C675.031 558.488 673.052 557.896 671.398 556.711C669.745 555.526 668.475 553.846 667.59 551.672C666.704 549.484 666.262 546.9 666.262 543.918V543.879C666.262 540.897 666.704 538.319 667.59 536.145C668.475 533.957 669.745 532.277 671.398 531.105C673.052 529.921 675.031 529.328 677.336 529.328C679.628 529.328 681.6 529.921 683.254 531.105C684.921 532.277 686.197 533.957 687.082 536.145C687.967 538.319 688.41 540.897 688.41 543.879V543.918C688.41 546.9 687.967 549.484 687.082 551.672C686.197 553.846 684.921 555.526 683.254 556.711C681.6 557.896 679.628 558.488 677.336 558.488ZM677.336 554.367C678.599 554.367 679.68 553.951 680.578 553.117C681.477 552.284 682.16 551.086 682.629 549.523C683.098 547.961 683.332 546.092 683.332 543.918V543.879C683.332 541.704 683.098 539.842 682.629 538.293C682.16 536.73 681.477 535.539 680.578 534.719C679.68 533.885 678.599 533.469 677.336 533.469C676.06 533.469 674.973 533.885 674.074 534.719C673.189 535.539 672.512 536.73 672.043 538.293C671.574 539.842 671.34 541.704 671.34 543.879V543.918C671.34 546.092 671.574 547.961 672.043 549.523C672.512 551.086 673.189 552.284 674.074 553.117C674.973 553.951 676.06 554.367 677.336 554.367Z" fill="#00AEFF"/>
</g>
<defs>
<clipPath id="clip0_140_197">
<rect x="58" y="60.5" width="561" height="8" rx="4" fill="white"/>
</clipPath>
<clipPath id="clip1_140_197">
<rect x="640" y="37" width="55" height="55" rx="10" fill="white"/>
</clipPath>
</defs>
</svg>
